<?xml version="1.0" encoding="utf-8"?>
<!-- Generator: Adobe Illustrator 18.0.0, SVG Export Plug-In . SVG Version: 6.00 Build 0)  -->
<!DOCTYPE svg PUBLIC "-//W3C//DTD SVG 1.1//EN" "http://www.w3.org/Graphics/SVG/1.1/DTD/svg11.dtd">
<svg version="1.1" id="Layer_1" xmlns="http://www.w3.org/2000/svg" xmlns:xlink="http://www.w3.org/1999/xlink" x="0px" y="0px"
	 viewBox="0 0 300 300" enable-background="new 0 0 300 300" xml:space="preserve">
<g>
	<g>
		<path fill="#611544" d="M26.9,81.3l36.8,21.3l1.8-3.7L29,77.8c-1-0.6-2.2-0.2-2.8,0.7C25.6,79.5,26,80.7,26.9,81.3z M273.1,218.7
			l-22.2-12.8l-0.2,4.6l20.4,11.8c0.3,0.2,0.7,0.3,1,0.3c0.7,0,1.4-0.4,1.8-1C274.4,220.5,274,219.3,273.1,218.7z M286.6,184.5
			l-34.5-9.3l-0.2,4.2l33.6,9c0.2,0,0.4,0.1,0.5,0.1c0.9,0,1.7-0.6,2-1.5C288.4,185.9,287.7,184.8,286.6,184.5z M13.4,115.5
			l41.7,11.2v-4.2l-40.7-10.9c-1.1-0.3-2.2,0.4-2.5,1.4C11.6,114.1,12.3,115.2,13.4,115.5z M290.8,148h-37.6l-0.2,4.1h37.7
			c1.1,0,2-0.9,2-2C292.9,148.9,291.9,148,290.8,148z M55.1,148H9.2c-1.1,0-2,0.9-2,2c0,1.1,0.9,2,2,2h45.9V148z M288.1,113
			c-0.3-1.1-1.4-1.7-2.5-1.4l-38.7,10.4l2.3,3.6l37.5-10C287.7,115.2,288.4,114.1,288.1,113z M58.2,172.5l-44.8,12
			c-1.1,0.3-1.7,1.4-1.4,2.5c0.2,0.9,1.1,1.5,2,1.5c0.2,0,0.4,0,0.5-0.1l44.7-12L58.2,172.5z M232.4,104.8l40.7-23.5
			c1-0.6,1.3-1.8,0.7-2.8c-0.6-1-1.8-1.3-2.8-0.7L230,101.5l2.1,3.1L232.4,104.8z M26.2,221.5c0.4,0.7,1.1,1,1.8,1
			c0.3,0,0.7-0.1,1-0.3l14.9-8.6v-4.7l-16.9,9.8C26,219.3,25.6,220.5,26.2,221.5z M234.6,112.7c-0.2-0.3-0.4-0.5-0.7-0.7l-5.8-3.2
			L191.6,54l-22.3-42.7c-0.2-0.4-0.5-0.7-0.9-0.9L147,0.2c-0.9-0.4-2-0.1-2.6,0.7L95.8,71.6c-0.2,0.3-0.3,0.7-0.4,1.1l-0.6,24.2
			l-11.4-3.8c-0.6-0.2-1.3-0.1-1.8,0.2l-9.8,6.5c-0.3,0.2-0.6,0.5-0.7,0.8l-9.8,20.5c-0.1,0.3-0.2,0.6-0.2,0.9v36.3
			c0,0.2,0,0.3,0,0.4L70,198h-9.5c-0.5,0-1.1,0.2-1.5,0.6l-8.4,8.6c-0.4,0.4-0.6,0.9-0.6,1.4V231c0,0.1,0,0.3,0,0.4l12.4,57
			c0.2,1,1.1,1.6,2,1.6c0.1,0,0.3,0,0.4,0l23.7-4.7l25.6,4.5c0.3,0,0.5,0,0.8,0l22.3-4.7c0.9-0.2,1.6-1,1.6-1.9l0.3-7.6l28.6,9.6
			c0.2,0.1,0.4,0.1,0.6,0.1c0.2,0,0.4,0,0.6-0.1l13.2-4.2l0.4,10.8c0,0.9,0.6,1.6,1.4,1.9l19.1,6.3c0.2,0.1,0.4,0.1,0.6,0.1h15.8
			c0.7,0,1.3-0.3,1.7-0.9l20.9-30c0.2-0.3,0.3-0.7,0.4-1.1l5.6-132.8c0-0.4-0.1-0.8-0.3-1.2L234.6,112.7z M242.9,133.8l-20.5,6.8
			l10.7-22.6L242.9,133.8z M187.2,54.5l-31.8,23.1l7.6-48l4.8-12.3L187.2,54.5z M164.9,13.3l-4.2,10.9L151,6.6L164.9,13.3z
			 M145.9,5.9l13,23.5L151,79.7l-50-8.4L145.9,5.9z M84.5,97.8l7.1,2.4l-8,4.3L84.5,97.8z M83.1,109.4l13.4-7.1l27.4,24.7l14.7,43.2
			l-39.9-1.7l-16.1-25.6L83.1,109.4z M65.3,122.5l9.3-19.5l5.6-3.7l-1.1,8.6c0,0.1,0,0.3,0,0.3h0l-0.6,34.5L65.3,155V122.5z
			 M54.1,229.5v-20l7.3-7.4H72l8.6,5.4l-10.2,27.9l-16.2-6.2L54.1,229.5z M66,285.6l-11.3-52l15.2,5.8l8.2,43.7L66,285.6z
			 M82.1,282.4l-8.3-44.3l7.8-21.3l0.8,17.7l2.8,47.2L82.1,282.4z M89.2,281.2l-2.8-46.9l-1.2-27.9c0-0.7-0.4-1.3-1-1.6l-9.8-6.1
			l-8.8-39.4l0.5,0.5l14-13.2l15.5,24.5l16.7,114.1L89.2,281.2z M134.8,281.4l-18.5,3.9L99.9,172.6l39.5,1.7L134.8,281.4z
			 M139.4,271.3l4.1-98.9c0-0.3,0-0.5-0.1-0.7l-15.8-46.5c-0.1-0.3-0.3-0.6-0.6-0.9L98.9,98.9l0.6-23.7l51.3,8.6l15.4,196.5
			L139.4,271.3z M170.3,280.5L154.8,83L189.3,58l31,46.5l-23.9-13.3c-0.5-0.3-1.1-0.3-1.7-0.1s-1,0.6-1.2,1.2l-16.8,42.5
			c-0.1,0.3-0.2,0.5-0.1,0.8l5.5,141.1L170.3,280.5z M214.6,141.5l-33-7.8l14-35.5L214.6,141.5z M215.3,295.9h-9.4l9.4-99.2V295.9z
			 M215.3,153.5l-13.4,141.7l-15.2-5l-5.9-152.5l34.5,8.1V153.5z M199.8,97.7l25.4,14.2l0.1,0.2l0.1-0.1l4.7,2.6l-11.9,24.9
			L199.8,97.7z M238.5,267.3l-19.1,27.4v-141l0.8-8l23.8-7.9L238.5,267.3z"/>
	</g>
</g>
</svg>
