<?xml version="1.0" encoding="utf-8"?>
<!-- Generator: Adobe Illustrator 18.0.0, SVG Export Plug-In . SVG Version: 6.00 Build 0)  -->
<!DOCTYPE svg PUBLIC "-//W3C//DTD SVG 1.1//EN" "http://www.w3.org/Graphics/SVG/1.1/DTD/svg11.dtd">
<svg version="1.1" id="Layer_1" xmlns="http://www.w3.org/2000/svg" xmlns:xlink="http://www.w3.org/1999/xlink" x="0px" y="0px"
	 viewBox="0 0 300 300" enable-background="new 0 0 300 300" xml:space="preserve">
<path fill="#611544" d="M249,122.6C249,122.6,249,122.6,249,122.6c0,0,0.1-0.1,0.1-0.1c0-0.1,0.1-0.2,0.1-0.3c0,0,0-0.1,0-0.1
	c0-0.1,0-0.2,0-0.2c0,0,0-0.1,0-0.1c0-0.1,0-0.2,0-0.2c0,0,0,0,0-0.1c0,0,0-0.1,0-0.1c0,0,0-0.1,0-0.1l-25.8-67.9
	c-0.2-0.5-0.6-0.9-1.1-1.2l-44.8-18.4c0,0,0,0-0.1,0c-0.2-0.1-0.3-0.1-0.5-0.1c0,0-0.1,0-0.1,0c0,0,0,0,0,0c-0.2,0-0.3,0-0.5,0
	c0,0-0.1,0-0.1,0c-0.1,0-0.2,0.1-0.4,0.1c-0.1,0-0.2,0.1-0.3,0.2c-0.1,0.1-0.2,0.1-0.3,0.2c0,0-0.1,0.1-0.1,0.1l-11.3,12.6
	L107.5,0.5c-0.1-0.1-0.3-0.2-0.5-0.3c0,0-0.1,0-0.1,0c-0.2-0.1-0.4-0.1-0.6-0.1c0,0,0,0,0,0c-0.1,0-0.2,0-0.3,0c0,0,0,0,0,0
	c-0.1,0-0.3,0-0.4,0.1c0,0,0,0,0,0c-0.1,0-0.2,0.1-0.3,0.1c0,0-0.1,0-0.1,0.1c-0.1,0-0.2,0.1-0.2,0.1c0,0-0.1,0-0.1,0.1
	c-0.1,0.1-0.1,0.1-0.2,0.2c0,0,0,0-0.1,0.1l-54.5,64c0,0,0,0,0,0l0,0c0,0,0,0,0,0.1C50.1,64.9,50,65,50,65.1c0,0,0,0.1,0,0.1
	c0,0,0,0.1-0.1,0.1c0,0.1-0.1,0.2-0.1,0.3c0,0,0,0.1,0,0.1c0,0.2,0,0.3,0,0.5c0,0,0,0,0,0.1c0,0.1,0,0.3,0.1,0.4c0,0,0,0,0,0.1
	l41.8,115.3l-18.1,21.4c-0.3,0.3-0.5,0.8-0.5,1.2l-1.8,39.8c0,0,0,0.1,0,0.1c0,0.1,0,0.1,0,0.2c0,0.1,0,0.2,0,0.2c0,0,0,0.1,0,0.1
	c0,0,0,0,0,0c0.1,0.2,0.1,0.4,0.3,0.5c0,0,0,0.1,0.1,0.1c0,0,0,0.1,0.1,0.1l38.8,47.6c0.4,0.4,0.9,0.7,1.4,0.7l30.1,2.1
	c0,0,0.1,0,0.1,0c0,0,0,0,0,0s0,0,0,0c0.2,0,0.3,0,0.5-0.1c0,0,0.1,0,0.1,0c0.3-0.1,0.5-0.2,0.7-0.4c0,0,0,0,0.1-0.1
	c0,0,0.1-0.1,0.1-0.1c0.1-0.1,0.2-0.2,0.2-0.3c0,0,0,0,0-0.1l2.1-3.5l29.8,8.1c0,0,0,0,0.1,0c0.2,0,0.3,0.1,0.5,0.1c0,0,0,0,0,0
	c0.2,0,0.3,0,0.5-0.1c0,0,0.1,0,0.1,0c0,0,0.1,0,0.1,0l56.5-22.4c0.5-0.2,1-0.7,1.2-1.2c0.2-0.6,0.1-1.2-0.1-1.7l-18.6-32.9
	c0,0,0,0,0,0c-0.1-0.1-0.2-0.2-0.3-0.4c0,0,0,0,0,0c0,0-0.1-0.1-0.1-0.1c-0.1-0.1-0.2-0.2-0.3-0.2c0,0-0.1,0-0.1-0.1
	c-0.1-0.1-0.2-0.1-0.4-0.1c0,0-0.1,0-0.1,0c-0.2,0-0.3-0.1-0.5-0.1c0,0,0,0,0,0h0l-6.1,0L249,122.6z M172.7,189.9l-30.9-35.5
	l31.2-37l11.9,21.1L172.7,189.9z M182.9,207.9l-6.4,23.4l-41-38.9l-4.6-44.1L182.9,207.9z M205.3,244.7
	C205.4,244.7,205.4,244.7,205.3,244.7C205.4,244.7,205.4,244.7,205.3,244.7l3.7,0l-18.7,17.2l-20.1-10.5l4-6.6L205.3,244.7z
	 M141.9,290.8l-44.1-52.5l36-42l41.3,39.2L141.9,290.8z M109.9,160.6L82.2,84.2l37.8,2.9l3.3,17.6l-6.8,13.8
	c-0.1,0.3-0.2,0.6-0.2,0.9l-0.2,34L109.9,160.6z M105.7,10.1L119.3,83L82,80.1L105.7,10.1z M140.6,78.9l33.7-37.6l-3,71.8
	l-32.3,38.2l-9.3-10.6c-0.4-0.4-0.9-0.7-1.5-0.7c0,0,0,0,0,0c-0.6,0-1.2,0.3-1.5,0.7l-6.6,7.7l0.2-28.6L140.6,78.9z M219.9,55.6
	l24.6,64.9l-56.4,15.2l-12.7-22.4l3.1-74.7L219.9,55.6z M161.1,49.9l-23.7,26.5c-0.1,0.1-0.2,0.3-0.3,0.5l-10.8,21.8L109.3,7.2
	L161.1,49.9z M100.9,11.5L78.1,79L54.9,65.5L100.9,11.5z M55.6,70.7l22,12.7l29.2,80.8l-12.1,14.3L55.6,70.7z M77.1,205.6l49.7-58.6
	l4.7,45.6L94,236.5l-18.5,5.4L77.1,205.6z M113.1,290.2l-36.3-44.5l17.6-5.1l43.2,51.3L113.1,290.2z M148.3,288.2l19.9-33.3
	l19.9,10.4l-12.9,30.2L148.3,288.2z M180.2,294.3l12.2-28.7l21.4-19.6l16.2,28.6L180.2,294.3z M203.9,240.7l-27.2,0l2.7-4.4
	c0.1-0.2,0.2-0.4,0.2-0.5c0,0,0,0,0,0l7.6-27.7c0.2-0.7,0-1.4-0.4-1.9L176,193.7l12.9-53.9l55.2-14.9L203.9,240.7z"/>
</svg>
