<?xml version="1.0" encoding="utf-8"?>
<!-- Generator: Adobe Illustrator 18.0.0, SVG Export Plug-In . SVG Version: 6.00 Build 0)  -->
<!DOCTYPE svg PUBLIC "-//W3C//DTD SVG 1.1//EN" "http://www.w3.org/Graphics/SVG/1.1/DTD/svg11.dtd">
<svg version="1.1" id="Layer_1" xmlns="http://www.w3.org/2000/svg" xmlns:xlink="http://www.w3.org/1999/xlink" x="0px" y="0px"
	 viewBox="0 0 300 300" enable-background="new 0 0 300 300" xml:space="preserve">
<path fill="#611544" d="M265.6,182.9C265.7,182.8,265.7,182.8,265.6,182.9c0.1-0.2,0.2-0.3,0.3-0.5c0,0,0,0,0-0.1
	c0.1-0.2,0.1-0.3,0.1-0.5c0,0,0,0,0-0.1l1.4-31.2c0-0.7-0.3-1.3-0.9-1.7l-26.8-18c-0.5-0.4-1.2-0.4-1.8-0.2l-32.1,13.2c0,0,0,0,0,0
	c0,0,0,0,0,0c0,0-0.1,0-0.1,0.1c-0.1,0-0.2,0.1-0.2,0.1c-0.1,0-0.1,0.1-0.1,0.1c0,0-0.1,0.1-0.1,0.1l0,0c0,0,0,0,0,0l-13.6,13.2
	L174.9,49.7c-0.1-0.4-0.3-0.8-0.6-1.1l-47.6-45c-0.5-0.5-1.2-0.6-1.9-0.4c-0.8,0.1-1.5,0.6-1.7,1.3L75.7,50.7c0,0,0,0,0,0
	c-0.1,0.1-0.1,0.2-0.2,0.2c0,0,0,0.1-0.1,0.1c-0.1,0.1-0.1,0.2-0.2,0.4c0,0,0,0,0,0c0,0,0,0.1,0,0.1c0,0.1-0.1,0.2-0.1,0.3
	c0,0,0,0.1,0,0.1c0,0.1,0,0.2,0,0.3c0,0,0,0,0,0.1l10.8,108.6l-10.6-22.6c0,0,0,0,0,0c-0.1-0.2-0.2-0.3-0.3-0.5c0,0,0-0.1-0.1-0.1
	c-0.1-0.1-0.3-0.2-0.4-0.3c0,0,0,0,0,0l-19.3-10.1c-0.8-0.4-1.7-0.2-2.3,0.4L33,149c0,0,0,0,0,0.1c-0.1,0.1-0.2,0.2-0.2,0.3
	c0,0,0,0.1-0.1,0.1c0,0,0,0,0,0c-0.1,0.1-0.1,0.3-0.1,0.4c0,0,0,0.1,0,0.1c0,0.1,0,0.2,0,0.4c0,0,0,0.1,0,0.1c0,0.1,0,0.3,0.1,0.4
	c0,0,0,0,0,0l20.9,61.7l-8.9,12.6c0,0,0,0,0,0c-0.1,0.1-0.1,0.2-0.2,0.3c0,0,0,0,0,0.1c-0.1,0.1-0.1,0.3-0.1,0.4c0,0,0,0,0,0.1
	c0,0.1,0,0.2,0,0.3c0,0.1,0,0.1,0,0.2c0,0.1,0,0.2,0.1,0.3c0,0,0,0.1,0,0.1L58,269.3c0.1,0.3,0.3,0.6,0.5,0.8l18.8,18
	c0.4,0.4,0.9,0.6,1.4,0.5l33.3-0.4l20.5,8.6c0.2,0.1,0.5,0.2,0.8,0.2c0,0,0,0,0,0l53.1-1.2c0.3,0,0.5-0.1,0.8-0.2
	c0.1,0,0.1-0.1,0.2-0.1c0,0,0,0,0.1,0l22.6-15c0.5-0.3,0.8-0.8,0.9-1.4s-0.1-1.1-0.4-1.5l-10.1-11.9L265.6,182.9z M238.5,134.7
	l25,16.8l-1.3,28.9L238.6,192l-13.3-7.3l-16.1-38L238.5,134.7z M195.5,243.3l0.1-23.8c0.1-0.1,0.3-0.2,0.4-0.3l28.3-30.5l11.1,6.1
	L195.5,243.3z M179.7,241.5l12.2-43.4l-0.3,57.3L179.7,241.5z M206,149.1l15.7,36.9l-25.9,27.8l0.2-28.9c0-0.1,0-0.2,0-0.3
	l-3.5-22.3L206,149.1z M188.3,161c-0.4,0.7-0.3,1.6,0.3,2.2c0,0,0,0,0,0l3.2,20.8c-0.1,0.1-0.1,0.2-0.1,0.4l-15,53.5l-6.4-7.5
	c0,0,0,0,0,0l0,0c0,0,0,0,0,0c-0.1-0.1-0.1-0.1-0.2-0.2c0,0-0.1-0.1-0.1-0.1c0,0-0.1,0-0.1-0.1c-0.1-0.1-0.3-0.2-0.5-0.2
	c0,0,0,0,0,0l-4.7-1.3l-1.1-133.7c0,0,0,0,0,0l8.7-36.6L188.3,161z M138.6,265.1l-12.6,1.5l-10.3-24.1l9.8-10
	c0.1-0.1,0.2-0.1,0.2-0.2l8.3-8.5l27.6,7.8c0.3,0.2,0.7,0.4,1.1,0.4c0,0,0,0,0,0c0.1,0,0.1,0,0.2,0l2.5,0.7L138.6,265.1z
	 M122.5,268.3l-10.2,14.5l-34.4-47.7l7.4-21.2l26.3,28.9c0,0.1,0.1,0.2,0.1,0.3L122.5,268.3z M60.4,237.1l-11.6-11l14.9-21.1l11.2,4
	c0,0,0,0,0,0l7.2,2.5l-8,22.8c0,0.1,0,0.2-0.1,0.3L60.4,237.1z M37.7,154l25.7,12.4l9.4,37.6l-9.2-3.3c-0.8-0.3-1.7,0-2.2,0.7
	l-5.1,7.2L37.7,154z M73.9,144.3l13.2,28.2l4.2,42.2L86,209c0,0,0,0-0.1,0c-0.1-0.1-0.2-0.1-0.2-0.2c0,0-0.1-0.1-0.1-0.1
	c-0.1-0.1-0.3-0.1-0.4-0.2c0,0,0,0,0,0l-8-2.8l-10.1-40.5L73.9,144.3z M123.7,102.8l36-6.7l1.1,131.2l-26.8-7.6
	c-0.7-0.2-1.4,0-1.9,0.5l-6,6.1L123.7,102.8z M170.2,50l-10,42l-37,6.9c-0.1-0.1-0.1-0.1-0.2-0.2l-13-35.3l16.1-55.2L170.2,50z
	 M121,12.1l-14.3,49.2l-26-9.9L121,12.1z M79.3,55l27.3,10.4l13.2,35.8l2.5,129.1l-8.7,8.9l-17.9-19.7c0,0,0-0.1,0-0.1L79.3,55z
	 M54.6,131.4l16.6,8.6L64,162.3l-26.3-12.7L54.6,131.4z M61.6,267.6l-11.2-34.7l7.5,7.2c0,0.1,0,0.2,0.1,0.3l15.4,38.5L61.6,267.6z
	 M79.9,284.6l-17.6-43.9l13-2.5l33.2,45.9L79.9,284.6z M133.7,293l-18.3-7.7l10.4-14.7l12.9-1.5l15,23.5L133.7,293z M158.2,292.5
	l-12.7-19.9l33.8,19.4L158.2,292.5z M186.3,291.5l-43.8-25.1l26.2-31.7l7.2,8.5c0,0,0.1,0.1,0.1,0.1l20.2,23.7
	c0,0.1,0.1,0.1,0.1,0.2l9.6,11.3L186.3,291.5z M197.8,262.7l-2.5-2.9c0.1-0.2,0.1-0.4,0.1-0.7l0.1-9.8c0.2-0.1,0.3-0.2,0.5-0.4
	l43.8-53.1l17.5-8.6L197.8,262.7z"/>
</svg>
