<?xml version="1.0" encoding="utf-8"?>
<!-- Generator: Adobe Illustrator 18.0.0, SVG Export Plug-In . SVG Version: 6.00 Build 0)  -->
<!DOCTYPE svg PUBLIC "-//W3C//DTD SVG 1.1//EN" "http://www.w3.org/Graphics/SVG/1.1/DTD/svg11.dtd">
<svg version="1.1" id="Layer_1" xmlns="http://www.w3.org/2000/svg" xmlns:xlink="http://www.w3.org/1999/xlink" x="0px" y="0px"
	 viewBox="0 0 300 300" enable-background="new 0 0 300 300" xml:space="preserve">
<g>
	<g>
		<path fill="#611544" d="M248,134.1l-13.3-21.4c-0.2-0.3-0.4-0.5-0.7-0.7l-5.8-3.2L191.7,54l-22.3-42.7c-0.2-0.4-0.5-0.7-0.9-0.9
			L147.1,0.2c-0.9-0.4-2-0.1-2.6,0.7L95.9,71.6c-0.2,0.3-0.3,0.7-0.4,1.1l-0.6,24.2l-11.4-3.8c-0.6-0.2-1.3-0.1-1.8,0.2L72,99.9
			c-0.3,0.2-0.6,0.5-0.7,0.8l-9.8,20.5c-0.1,0.3-0.2,0.6-0.2,0.9v36.3c0,0.2,0,0.3,0,0.4l8.8,39.1h-9.5c-0.5,0-1.1,0.2-1.5,0.6
			l-8.4,8.6c-0.4,0.4-0.6,0.9-0.6,1.4V231c0,0.1,0,0.3,0,0.4l12.4,57c0.2,1,1.1,1.6,2,1.6c0.1,0,0.3,0,0.4,0l23.7-4.7l25.6,4.5
			c0.3,0,0.5,0,0.8,0l22.3-4.7c0.9-0.2,1.6-1,1.6-1.9l0.3-7.6l28.6,9.6c0.2,0.1,0.4,0.1,0.6,0.1c0.2,0,0.4,0,0.6-0.1l13.2-4.2
			l0.4,10.8c0,0.9,0.6,1.6,1.4,1.9l19.1,6.3c0.2,0.1,0.4,0.1,0.6,0.1h15.8c0.7,0,1.3-0.3,1.7-0.9l20.9-30c0.2-0.3,0.3-0.7,0.4-1.1
			l5.6-132.8C248.3,134.8,248.2,134.4,248,134.1z M243,133.8l-20.5,6.8l10.7-22.6L243,133.8z M187.3,54.5l-31.8,23.1l7.6-48
			l4.8-12.3L187.3,54.5z M165,13.3l-4.2,10.9l-9.7-17.6L165,13.3z M146,5.9l13,23.5l-7.9,50.3l-50-8.4L146,5.9z M84.6,97.8l7.1,2.4
			l-8,4.3L84.6,97.8z M83.2,109.4l13.4-7.1L124,127l14.7,43.2l-39.9-1.7l-16.1-25.6L83.2,109.4z M65.4,122.5l9.3-19.5l5.6-3.7
			l-1.1,8.6c0,0.1,0,0.3,0,0.3h0l-0.6,34.5L65.4,155V122.5z M54.2,229.5v-20l7.3-7.4h10.7l8.6,5.4l-10.2,27.9l-16.2-6.2L54.2,229.5z
			 M66.1,285.6l-11.3-52l15.2,5.8l8.2,43.7L66.1,285.6z M82.2,282.4l-8.3-44.3l7.8-21.3l0.8,17.7l2.8,47.2L82.2,282.4z M89.3,281.2
			l-2.8-46.9l-1.2-27.9c0-0.7-0.4-1.3-1-1.6l-9.8-6.1l-8.8-39.4l0.5,0.5l14-13.2l15.5,24.5l16.7,114.1L89.3,281.2z M135,281.4
			l-18.5,3.9L100,172.6l39.5,1.7L135,281.4z M139.5,271.3l4.1-98.9c0-0.3,0-0.5-0.1-0.7l-15.8-46.5c-0.1-0.3-0.3-0.6-0.6-0.9
			L99,98.9l0.6-23.7l51.3,8.6l15.4,196.5L139.5,271.3z M170.4,280.5L154.9,83L189.4,58l31,46.5l-23.9-13.3c-0.5-0.3-1.1-0.3-1.7-0.1
			c-0.6,0.2-1,0.6-1.2,1.2l-16.8,42.5c-0.1,0.3-0.2,0.5-0.1,0.8l5.5,141.1L170.4,280.5z M214.7,141.5l-33-7.8l14-35.5L214.7,141.5z
			 M215.4,295.9H206l9.4-99.2V295.9z M215.4,153.5L202,295.2l-15.2-5l-5.9-152.5l34.5,8.1V153.5z M199.9,97.7l25.4,14.2l0.1,0.2
			l0.1-0.1l4.7,2.6l-11.9,24.9L199.9,97.7z M238.6,267.3l-19.1,27.4v-141l0.8-8l23.8-7.9L238.6,267.3z"/>
	</g>
</g>
</svg>
