<?xml version="1.0" encoding="utf-8"?>
<!-- Generator: Adobe Illustrator 18.0.0, SVG Export Plug-In . SVG Version: 6.00 Build 0)  -->
<!DOCTYPE svg PUBLIC "-//W3C//DTD SVG 1.1//EN" "http://www.w3.org/Graphics/SVG/1.1/DTD/svg11.dtd">
<svg version="1.1" id="Layer_1" xmlns="http://www.w3.org/2000/svg" xmlns:xlink="http://www.w3.org/1999/xlink" x="0px" y="0px"
	 viewBox="0 0 300 300" enable-background="new 0 0 300 300" xml:space="preserve">
<g>
	<g>
		<path fill="#611544" d="M273.1,218.7l-28.6-16.5l2.1,5.9l24.5,14.1c0.3,0.2,0.7,0.3,1,0.3c0.7,0,1.4-0.4,1.8-1
			C274.4,220.5,274,219.3,273.1,218.7z M26.9,81.3l15.5,9l1.6-3.8L29,77.8c-1-0.6-2.2-0.2-2.8,0.7C25.6,79.5,26,80.7,26.9,81.3z
			 M286.6,184.5L243.9,173l-0.9,4l42.6,11.4c0.2,0,0.4,0.1,0.5,0.1c0.9,0,1.7-0.6,2-1.5C288.4,185.9,287.7,184.8,286.6,184.5z
			 M13.4,115.5l23.2,6.2l-1.5-4.6l-20.7-5.5c-1.1-0.3-2.2,0.4-2.5,1.4C11.6,114.1,12.3,115.2,13.4,115.5z M290.8,148h-41.4l-0.9,4.1
			h42.3c1.1,0,2-0.9,2-2C292.9,148.9,291.9,148,290.8,148z M41.7,148H9.2c-1.1,0-2,0.9-2,2c0,1.1,0.9,2,2,2h32.9L41.7,148z
			 M254.8,124l31.9-8.5c1.1-0.3,1.7-1.4,1.4-2.5c-0.3-1.1-1.4-1.7-2.5-1.4l-29.8,8L254.8,124z M45.8,175.8l-32.4,8.7
			c-1.1,0.3-1.7,1.4-1.4,2.5c0.2,0.9,1.1,1.5,2,1.5c0.2,0,0.4,0,0.5-0.1l32-8.6L45.8,175.8z M26.9,218.7c-1,0.6-1.3,1.8-0.7,2.8
			c0.4,0.7,1.1,1,1.8,1c0.3,0,0.7-0.1,1-0.3l22.1-12.8l-0.7-4.3L26.9,218.7z M273.8,78.5c-0.6-1-1.8-1.3-2.8-0.7l-6.8,4l-1.2,5.4
			l10.1-5.8C274,80.7,274.4,79.5,273.8,78.5z M234.3,190.5l26.1-117.2c0.1-0.4,0.1-0.8-0.1-1.2l-12.4-31.7c-0.2-0.5-0.6-1-1.2-1.2
			L214.8,27c-0.5-0.2-1.2-0.2-1.7,0.1l-40.7,21.5c-0.5,0.3-0.9,0.7-1,1.2L150.6,122l-6.6-49.6c0-0.4-0.2-0.7-0.4-1L89.8,1.3
			c-0.3-0.6-0.9-1.1-1.5-1.2C88,0,87.8,0,87.5,0c-0.7,0.1-1.3,0.6-1.6,1.2L39.7,111.5c-0.2,0.5-0.2,1-0.1,1.4l6.4,19.8l1.8,19.9
			c0,0,0,0.1,0,0.1l16.8,106.7c0.1,0.7,0.5,1.2,1.2,1.5l23.1,10.6c0.3,0.1,0.6,0,0.9,0c0,0,0,0,0,0l11.8-0.1l7.9,19.7
			c0.3,0.7,0.9,1.1,1.6,1.3l48.7,7.7c0.1,0,0.2,0,0.3,0c0.1,0,0.2,0,0.3,0l28.3-4.2c0.1,0,0.2,0,0.4-0.1l34.3-11.8
			c0.4-0.1,0.7-0.3,0.9-0.6l9.7-11.8c0.2-0.3,0.4-0.6,0.4-1l7.7-56.9c0-0.3,0-0.7-0.1-1L234.3,190.5z M231.7,183.3l-11-30.6
			c-0.3-0.8-1-1.3-1.9-1.3l-11.1-0.3l14.4-62.4l33.5-12.9L231.7,183.3z M153.7,177.5l32.6,66.7l-44.2-42.3L153.7,177.5z
			 M137.9,200.6l-31.3,5.9l5.2-22.4l25.3-31.7l6,17.1L137.9,200.6z M144.2,188.1l2.8-16.2l4.3,1.2L144.2,188.1z M156,172.8l0.6-1.4
			c0.1-0.2,0.2-0.4,0.2-0.6l3.2-25.9l22,9.3l21.5,33.1l11.5,57.2l-20.7,6.6L156,172.8z M187.2,154.7l29.4,0.7l-1.4,31.7l-8.5-2.4
			L187.2,154.7z M208.1,189.3l7.4,2.1l10.6,42.4l-7.6,7.8L208.1,189.3z M255.5,71.3l-30.7,11.8l20.7-37.5L255.5,71.3z M242.8,42.1
			l-21.1,38.3l-4.9-48.2L242.8,42.1z M212.6,32l5.2,50.5l-40.3-31.9L212.6,32z M174.6,53.5L218,87.9L203.5,151l-19.7-0.5l-24.7-10.4
			c-0.4-0.2-0.9-0.2-1.4-0.1l-4.6,1.4l-1.2-9.3L174.6,53.5z M155.9,144.8l-3,24.5l-6-1.7l-6.4-18.1L155.9,144.8z M149.2,142.6
			l-11.9,3.7c-0.4,0.1-0.7,0.4-1,0.7l-9.3,11.6l-4.2-30.9l18.1-46.9L149.2,142.6z M139.6,73l-18.5,47.8L92.5,11.5L139.6,73z
			 M88.3,11.7l29.2,111.7L73.5,98.7L88.3,11.7z M114.4,126.4l-24.7,3.2L76.4,105L114.4,126.4z M43.7,112.4L83,18.8L69.4,98.4
			c0,0,0,0,0,0l-20.6,29.3L43.7,112.4z M50.1,132.8l20.7-29.4L86.4,132l-10.7,45.7l-23.9-26.2L50.1,132.8z M68.5,257.7l-15.6-98.9
			l21.6,23.7l12.6,83.9L68.5,257.7z M91.5,267.7l-12.8-85.1l0.1,0l11.5-49l28.8-3.7l4.5,33.1l-15.1,18.9c-0.2,0.2-0.3,0.5-0.4,0.8
			l-15.3,65.5c-0.1,0.4-0.1,0.8,0.1,1.2l7.3,18.1L91.5,267.7z M186.7,291.9l-26.5,4l-47.3-7.5l-16.1-39.9l8.8-37.7l33.4-6.3l52,49.9
			L186.7,291.9z M190.9,290.7l4.2-35.6l20.6-6.6l4.9,32.1L190.9,290.7z M222.5,266.6l-3.1-20.1l6.1-6.4L222.5,266.6z M230.6,269.3
			l-5,6l4.7-40.3l6.5-11.5L230.6,269.3z M229.1,228.9l-9.8-39.4l1.1-25.7L238,213L229.1,228.9z"/>
	</g>
</g>
</svg>
